<svg width="64" height="64" viewBox="0 0 64 64" fill="none" xmlns="http://www.w3.org/2000/svg">
  <defs>
    <linearGradient id="snow-cloud-fill" x1="14" y1="15" x2="49" y2="42" gradientUnits="userSpaceOnUse">
      <stop offset="0" stop-color="#E2E8F0"/>
      <stop offset="0.5" stop-color="#94A3B8"/>
      <stop offset="1" stop-color="#475569"/>
    </linearGradient>
    <linearGradient id="snow-cloud-stroke" x1="17" y1="18" x2="48" y2="42" gradientUnits="userSpaceOnUse">
      <stop offset="0" stop-color="#F8FAFC"/>
      <stop offset="1" stop-color="#94A3B8"/>
    </linearGradient>
    <linearGradient id="snow-flake" x1="18" y1="40" x2="44" y2="55" gradientUnits="userSpaceOnUse">
      <stop offset="0" stop-color="#E0F2FE"/>
      <stop offset="1" stop-color="#BAE6FD"/>
    </linearGradient>
    <filter id="snow-shadow" x="4" y="10" width="56" height="48" filterUnits="userSpaceOnUse" color-interpolation-filters="sRGB">
      <feDropShadow dx="0" dy="7" stdDeviation="6" flood-color="#0F172A" flood-opacity="0.34"/>
    </filter>
  </defs>
  <g filter="url(#snow-shadow)">
    <path d="M21 36.5C15.48 36.5 11 32.32 11 27.17C11 22.36 14.91 18.35 19.89 17.88C21.47 12.18 26.83 8.1 33.12 8.1C40.45 8.1 46.48 13.52 47.29 20.48C51.08 21.32 53.8 24.54 53.8 28.35C53.8 32.82 50.12 36.45 45.58 36.45H21V36.5Z" fill="url(#snow-cloud-fill)"/>
    <path d="M21 36.5C15.48 36.5 11 32.32 11 27.17C11 22.36 14.91 18.35 19.89 17.88C21.47 12.18 26.83 8.1 33.12 8.1C40.45 8.1 46.48 13.52 47.29 20.48C51.08 21.32 53.8 24.54 53.8 28.35C53.8 32.82 50.12 36.45 45.58 36.45H21" stroke="url(#snow-cloud-stroke)" stroke-width="2.3" stroke-linejoin="round"/>
    <g stroke="url(#snow-flake)" stroke-width="2.5" stroke-linecap="round">
      <path d="M22 42V52"/>
      <path d="M17 47H27"/>
      <path d="M18.5 43.5L25.5 50.5"/>
      <path d="M25.5 43.5L18.5 50.5"/>
      <path d="M42 42V52"/>
      <path d="M37 47H47"/>
      <path d="M38.5 43.5L45.5 50.5"/>
      <path d="M45.5 43.5L38.5 50.5"/>
    </g>
  </g>
</svg>
