<?xml version="1.0" encoding="UTF-8"?>
<svg xmlns="http://www.w3.org/2000/svg" viewBox="0 0 320 240" role="img" aria-hidden="true">
  <defs>
    <linearGradient id="bg" x1="0%" y1="0%" x2="100%" y2="100%">
      <stop offset="0%" stop-color="#0f2025" />
      <stop offset="100%" stop-color="#0d1117" />
    </linearGradient>
    <linearGradient id="accentBand" x1="0%" y1="0%" x2="100%" y2="0%">
      <stop offset="0%" stop-color="#39c5cf" stop-opacity="0.92" />
      <stop offset="100%" stop-color="#39c5cf" stop-opacity="0" />
    </linearGradient>
    <filter id="glow" x="-30%" y="-30%" width="160%" height="160%">
      <feGaussianBlur stdDeviation="8" result="blur" />
      <feMerge>
        <feMergeNode in="blur" />
        <feMergeNode in="SourceGraphic" />
      </feMerge>
    </filter>
  </defs>

  <rect width="320" height="240" rx="28" fill="url(#bg)" />
  <rect x="0" y="0" width="320" height="8" rx="28" fill="url(#accentBand)" />
  <rect x="16" y="16" width="288" height="208" rx="22" fill="none" stroke="#39c5cf" stroke-opacity="0.14" />
  
    <g opacity="0.16" stroke="#9da5b0" stroke-width="1">
      <path d="M24 54H296" />
      <path d="M24 94H296" />
      <path d="M24 134H296" />
      <path d="M24 174H296" />
      <path d="M76 20V220" />
      <path d="M140 20V220" />
      <path d="M204 20V220" />
      <path d="M268 20V220" />
    </g>
  
  
    <g transform="translate(30 36)">
      <rect width="100" height="76" rx="18" fill="#111827" stroke="#39c5cf" stroke-opacity="0.28" />
      <circle cx="22" cy="20" r="8" fill="#39c5cf" fill-opacity="0.18" stroke="#39c5cf" />
      <path d="M16 20h12" stroke="#39c5cf" stroke-width="2.5" stroke-linecap="round" />
      <rect x="14" y="46" width="12" height="16" rx="6" fill="#39c5cf" fill-opacity="0.28" /><rect x="34" y="38" width="12" height="24" rx="6" fill="#39c5cf" fill-opacity="0.4" /><rect x="54" y="28" width="12" height="34" rx="6" fill="#39c5cf" fill-opacity="0.52" /><rect x="74" y="20" width="12" height="42" rx="6" fill="#39c5cf" fill-opacity="0.64" />
    </g>
  
  
        <g transform="translate(224 34)" fill="none" stroke="#39c5cf" stroke-width="4" stroke-linecap="round">
          <path d="M-8 18C6 4 24 4 38 18" />
          <path d="M-2 34C12 20 34 20 50 34" opacity="0.72" />
          <path d="M12 2C26 -8 44 -8 58 2" opacity="0.54" />
        </g>
      
  
    <path d="M132 184 C180 178, 236 194, 302 188" stroke="#39c5cf" stroke-width="10" stroke-linecap="round" opacity="0.24" />
    <path d="M132 184 C180 178, 236 194, 302 188" stroke="#1f2937" stroke-width="6" stroke-linecap="round" />
  
  
    <g transform="translate(152 72) rotate(-4 74 58)">
      <circle cx="26" cy="106" r="24" fill="none" stroke="#c9d1d9" stroke-width="5" opacity="0.85" />
      <circle cx="122" cy="106" r="24" fill="none" stroke="#c9d1d9" stroke-width="5" opacity="0.85" />
      <path d="M26 106 L62 66 L92 106 L54 106 Z" fill="none" stroke="#58a6ff" stroke-width="5" stroke-linejoin="round" />
      <path d="M62 66 L90 44 L104 58" fill="none" stroke="#58a6ff" stroke-width="5" stroke-linecap="round" stroke-linejoin="round" />
      <path d="M62 66 L54 44" fill="none" stroke="#58a6ff" stroke-width="5" stroke-linecap="round" />
      <circle cx="80" cy="23.5" r="10" fill="#ffd7b5" />
      <path d="M78 33.5 L64 41.2 L80 61.2 L98 52.9" fill="none" stroke="#39c5cf" stroke-width="6" stroke-linecap="round" stroke-linejoin="round" />
      <path d="M80 61.2 L62 78.9 L44 108" fill="none" stroke="#39c5cf" stroke-width="6" stroke-linecap="round" stroke-linejoin="round" />
      <path d="M80 61.2 L98 71.05 L122 108" fill="none" stroke="#39c5cf" stroke-width="6" stroke-linecap="round" stroke-linejoin="round" />
      <circle cx="80" cy="23.5" r="16" fill="#39c5cf" fill-opacity="0.09" />
    </g>
  
  <ellipse cx="228" cy="194" rx="74" ry="22" fill="#39c5cf" fill-opacity="0.08" filter="url(#glow)" />
</svg>
