<?xml version="1.0" encoding="UTF-8"?>
<svg xmlns="http://www.w3.org/2000/svg" viewBox="0 0 320 240" role="img" aria-hidden="true">
  <defs>
    <linearGradient id="bg" x1="0%" y1="0%" x2="100%" y2="100%">
      <stop offset="0%" stop-color="#101c2a" />
      <stop offset="100%" stop-color="#0d1117" />
    </linearGradient>
    <linearGradient id="accentBand" x1="0%" y1="0%" x2="100%" y2="0%">
      <stop offset="0%" stop-color="#58a6ff" stop-opacity="0.92" />
      <stop offset="100%" stop-color="#58a6ff" stop-opacity="0" />
    </linearGradient>
    <filter id="glow" x="-30%" y="-30%" width="160%" height="160%">
      <feGaussianBlur stdDeviation="8" result="blur" />
      <feMerge>
        <feMergeNode in="blur" />
        <feMergeNode in="SourceGraphic" />
      </feMerge>
    </filter>
  </defs>

  <rect width="320" height="240" rx="28" fill="url(#bg)" />
  <rect x="0" y="0" width="320" height="8" rx="28" fill="url(#accentBand)" />
  <rect x="16" y="16" width="288" height="208" rx="22" fill="none" stroke="#58a6ff" stroke-opacity="0.14" />
  
    <g opacity="0.16" stroke="#9da5b0" stroke-width="1">
      <path d="M24 54H296" />
      <path d="M24 94H296" />
      <path d="M24 134H296" />
      <path d="M24 174H296" />
      <path d="M76 20V220" />
      <path d="M140 20V220" />
      <path d="M204 20V220" />
      <path d="M268 20V220" />
    </g>
  
  
    <g transform="translate(30 36)">
      <rect width="100" height="76" rx="18" fill="#111827" stroke="#58a6ff" stroke-opacity="0.28" />
      <circle cx="22" cy="20" r="8" fill="#58a6ff" fill-opacity="0.18" stroke="#58a6ff" />
      <path d="M16 20h12" stroke="#58a6ff" stroke-width="2.5" stroke-linecap="round" />
      <rect x="14" y="48" width="12" height="14" rx="6" fill="#58a6ff" fill-opacity="0.28" /><rect x="34" y="40" width="12" height="22" rx="6" fill="#58a6ff" fill-opacity="0.4" /><rect x="54" y="32" width="12" height="30" rx="6" fill="#58a6ff" fill-opacity="0.52" /><rect x="74" y="26" width="12" height="36" rx="6" fill="#58a6ff" fill-opacity="0.64" />
    </g>
  
  
        <g transform="translate(230 30)">
          <circle cx="8" cy="16" r="28" fill="#a371f7" fill-opacity="0.12" />
          <path d="M8 0v32M-8 16h32" stroke="#58a6ff" stroke-width="4" stroke-linecap="round" opacity="0.82" />
          <circle cx="8" cy="16" r="10" fill="#58a6ff" fill-opacity="0.18" stroke="#58a6ff" stroke-opacity="0.52" />
        </g>
      
  
    <path d="M132 184 C180 178, 236 192, 302 186" stroke="#58a6ff" stroke-width="10" stroke-linecap="round" opacity="0.24" />
    <path d="M132 184 C180 178, 236 192, 302 186" stroke="#1f2937" stroke-width="6" stroke-linecap="round" />
  
  
    <g transform="translate(152 72) rotate(-2 74 58)">
      <circle cx="26" cy="106" r="24" fill="none" stroke="#c9d1d9" stroke-width="5" opacity="0.85" />
      <circle cx="122" cy="106" r="24" fill="none" stroke="#c9d1d9" stroke-width="5" opacity="0.85" />
      <path d="M26 106 L62 66 L92 106 L54 106 Z" fill="none" stroke="#a371f7" stroke-width="5" stroke-linejoin="round" />
      <path d="M62 66 L90 44 L104 58" fill="none" stroke="#a371f7" stroke-width="5" stroke-linecap="round" stroke-linejoin="round" />
      <path d="M62 66 L54 44" fill="none" stroke="#a371f7" stroke-width="5" stroke-linecap="round" />
      <circle cx="80" cy="24.2" r="10" fill="#ffd7b5" />
      <path d="M78 34.2 L64 41.76 L80 61.76 L98 53.32" fill="none" stroke="#58a6ff" stroke-width="6" stroke-linecap="round" stroke-linejoin="round" />
      <path d="M80 61.76 L62 79.32 L44 108" fill="none" stroke="#58a6ff" stroke-width="6" stroke-linecap="round" stroke-linejoin="round" />
      <path d="M80 61.76 L98 71.54 L122 108" fill="none" stroke="#58a6ff" stroke-width="6" stroke-linecap="round" stroke-linejoin="round" />
      <circle cx="80" cy="24.2" r="16" fill="#58a6ff" fill-opacity="0.09" />
    </g>
  
  <ellipse cx="228" cy="194" rx="74" ry="22" fill="#58a6ff" fill-opacity="0.08" filter="url(#glow)" />
</svg>
